<mxfile host="app.diagrams.net" modified="2024-04-23T05:09:35.122Z" agent="Mozilla/5.0 (Windows NT 10.0; Win64; x64) AppleWebKit/537.36 (KHTML, like Gecko) Chrome/124.0.0.0 Safari/537.36" etag="eSDB53nuGV7UsNCEAYFN" version="24.2.8" type="device">
  <diagram name="Page-1" id="c4acf3e9-155e-7222-9cf6-157b1a14988f">
    <mxGraphModel dx="1050" dy="607" grid="1" gridSize="10" guides="1" tooltips="1" connect="1" arrows="1" fold="1" page="1" pageScale="1" pageWidth="850" pageHeight="1100" background="none" math="0" shadow="0">
      <root>
        <mxCell id="0" />
        <mxCell id="1" parent="0" />
        <mxCell id="WGxQd5YmeA1RwC6aAPig-7" value="Unit" style="swimlane;fontStyle=1;align=center;verticalAlign=top;childLayout=stackLayout;horizontal=1;startSize=26;horizontalStack=0;resizeParent=1;resizeParentMax=0;resizeLast=0;collapsible=1;marginBottom=0;whiteSpace=wrap;html=1;" vertex="1" parent="1">
          <mxGeometry x="140" y="240" width="400" height="112" as="geometry">
            <mxRectangle x="140" y="240" width="60" height="30" as="alternateBounds" />
          </mxGeometry>
        </mxCell>
        <mxCell id="WGxQd5YmeA1RwC6aAPig-9" value="" style="line;strokeWidth=1;fillColor=none;align=left;verticalAlign=middle;spacingTop=-1;spacingLeft=3;spacingRight=3;rotatable=0;labelPosition=right;points=[];portConstraint=eastwest;strokeColor=inherit;" vertex="1" parent="WGxQd5YmeA1RwC6aAPig-7">
          <mxGeometry y="26" width="400" height="8" as="geometry" />
        </mxCell>
        <mxCell id="WGxQd5YmeA1RwC6aAPig-2" value="+ virtual add( const std::shared_ptr&amp;lt; Unit &amp;gt;&amp;amp; , Flags ): void&amp;nbsp;" style="text;strokeColor=none;fillColor=none;align=left;verticalAlign=top;spacingLeft=4;spacingRight=4;overflow=hidden;rotatable=0;points=[[0,0.5],[1,0.5]];portConstraint=eastwest;whiteSpace=wrap;html=1;" vertex="1" parent="WGxQd5YmeA1RwC6aAPig-7">
          <mxGeometry y="34" width="400" height="26" as="geometry" />
        </mxCell>
        <mxCell id="WGxQd5YmeA1RwC6aAPig-4" value="+ virtual const compile(unsigned int level = 0): std::string" style="text;strokeColor=none;fillColor=none;align=left;verticalAlign=top;spacingLeft=4;spacingRight=4;overflow=hidden;rotatable=0;points=[[0,0.5],[1,0.5]];portConstraint=eastwest;whiteSpace=wrap;html=1;" vertex="1" parent="WGxQd5YmeA1RwC6aAPig-7">
          <mxGeometry y="60" width="400" height="26" as="geometry" />
        </mxCell>
        <mxCell id="WGxQd5YmeA1RwC6aAPig-11" value="# virtual const generateShift(unsigned int level = 0):&amp;nbsp;std::string" style="text;strokeColor=none;fillColor=none;align=left;verticalAlign=top;spacingLeft=4;spacingRight=4;overflow=hidden;rotatable=0;points=[[0,0.5],[1,0.5]];portConstraint=eastwest;whiteSpace=wrap;html=1;" vertex="1" parent="WGxQd5YmeA1RwC6aAPig-7">
          <mxGeometry y="86" width="400" height="26" as="geometry" />
        </mxCell>
        <mxCell id="WGxQd5YmeA1RwC6aAPig-16" style="edgeStyle=none;curved=1;rounded=0;orthogonalLoop=1;jettySize=auto;html=1;exitX=0.5;exitY=1;exitDx=0;exitDy=0;entryX=0;entryY=0.5;entryDx=0;entryDy=0;fontSize=12;startSize=8;endSize=8;" edge="1" parent="1" source="WGxQd5YmeA1RwC6aAPig-14" target="WGxQd5YmeA1RwC6aAPig-2">
          <mxGeometry relative="1" as="geometry" />
        </mxCell>
        <mxCell id="WGxQd5YmeA1RwC6aAPig-14" value="«Annotation Flags»&lt;br&gt;&lt;b&gt;using Flags = unsigned int;&lt;/b&gt;" style="html=1;dropTarget=0;whiteSpace=wrap;" vertex="1" parent="1">
          <mxGeometry x="20" y="90" width="180" height="90" as="geometry" />
        </mxCell>
        <mxCell id="WGxQd5YmeA1RwC6aAPig-15" value="" style="shape=module;jettyWidth=8;jettyHeight=4;" vertex="1" parent="WGxQd5YmeA1RwC6aAPig-14">
          <mxGeometry x="1" width="20" height="20" relative="1" as="geometry">
            <mxPoint x="-27" y="7" as="offset" />
          </mxGeometry>
        </mxCell>
      </root>
    </mxGraphModel>
  </diagram>
</mxfile>
